# xmcd
#
# Track frame offsets: 
#        150
#        4264
#        19269
#        40081
#        57922
#        78643
#        97052
#        118910
#        133844
#        156136
#        179756
#        196227
#        216159
#        248339
#        270171
#        299458
#        324334
#        339862
#
# Disc length: 4743 seconds
#
# Revision: 1
# Processed by: cddbd v1.5.2PL0 Copyright (c) Steve Scherf et al.
# Submitted via: ExactAudioCopy v0.99pb3
#
DISCID=01128512
DTITLE=Various Artist - Sundance - Stunt Records Compilation Vol. 15
DYEAR=2007
DGENRE=Jazz
TTITLE0=Caroline Henderson - Jazz Ain't Nothing But Soul
TTITLE1=Benni Chawes - Come Fly With Me
TTITLE2=George Gazone - Ballad For Trane
TTITLE3=Malene Mortensen - If You Gotta Make A Fool Of Somebody
TTITLE4=Blanco Y Negro - On The Sidewalk
TTITLE5=Caroline Henderson - Wild Is The Wind
TTITLE6=Franck, Doky, Vinding, 'Tootie' Heath - It Was A Party Every N
TTITLE6=ight
TTITLE7=Inger Marie - By Myself
TTITLE8=Blake Tartare - Maria
TTITLE9=Tango Orkestret - Miloncólico
TTITLE10=Thomas Fryland Quartet feat. Jim McNeely - Circle Song
TTITLE11=Katrine Madsen - I'll Keep You Satisfied
TTITLE12=Christina Sahl Heartbeats - Slip Away
TTITLE13=Schantz Segment - Return To Oblivion
TTITLE14=Mikkel Nordsø Band - Baba
TTITLE15=Ibrahim Electric - Blue Balls
TTITLE16=Hans Ulrik - Eggs In A Basket
TTITLE17=Mariane Bitran - Tågen Letter, The Fog Is Lifting
EXTD=YEAR: 2007
EXTT0=
EXTT1=
EXTT2=
EXTT3=
EXTT4=
EXTT5=
EXTT6=
EXTT7=
EXTT8=
EXTT9=
EXTT10=
EXTT11=
EXTT12=
EXTT13=
EXTT14=
EXTT15=
EXTT16=
EXTT17=
PLAYORDER=
